<?xml version="1.0" encoding="UTF-8" standalone="no"?>
<!-- Created with Inkscape (http://www.inkscape.org/) -->

<svg width="25.969643mm" height="28.837738mm" viewBox="0 0 25.969643 28.837738" version="1.1" id="svg5"
    xml:space="preserve" xmlns="http://www.w3.org/2000/svg"><defs
     id="defs2" /><g
     id="layer1"
     transform="translate(-39.334557,-105.00215)"><g
       id="g302"
       transform="translate(-63.115333,-24.230195)"><path
         style="fill:#febd00;stroke-width:0.264583"
         d="m 124.99806,154.44021 c -0.29104,-0.0709 -0.70776,-0.27507 -0.92604,-0.45371 -1.12887,-0.92384 -2.91041,-1.75114 -2.91041,-1.35152 0,0.25884 -0.24185,0.40803 -0.66146,0.40803 -0.41158,0 -0.66146,-0.14993 -0.66146,-0.39687 0,-0.22812 0.23878,-0.39688 0.56156,-0.39688 0.46917,0 0.50737,-0.0653 0.23219,-0.39687 -0.48003,-0.5784 -0.68331,-0.50958 -1.95373,0.66145 -1.32217,1.21874 -1.61271,1.28451 -2.04532,0.46302 -0.17243,-0.32742 -0.41701,-0.66327 -0.54352,-0.74633 -0.12651,-0.0831 -0.001,-0.73791 0.27812,-1.45521 1.71537,-4.40272 2.01081,-9.07995 0.73402,-11.62052 -0.86939,-1.72991 -0.64083,-1.87244 0.63987,-0.39901 2.79065,3.21059 5.35917,7.53499 7.07166,11.90597 0.4276,1.09141 0.97306,2.43086 1.21214,2.97656 0.47267,1.07887 0.38622,1.14633 -1.02762,0.80189 z"
         id="path308" /><path
         style="fill:#aa8c32;stroke-width:0.264583"
         d="m 113.15147,152.99392 c -0.41167,-0.55139 -0.77512,-1.56453 -0.97899,-2.72903 -0.17834,-1.01865 -0.59826,-2.393 -0.93315,-3.05411 -0.54473,-1.07535 -0.85559,-2.15178 -1.73614,-6.01176 -0.36425,-1.59672 0.18149,-2.58957 1.63919,-2.98208 1.4762,-0.3975 3.93381,-1.58073 3.93381,-1.89395 0,-0.47122 1.24191,1.23114 1.96761,2.6971 1.57821,3.1881 0.26227,13.22917 -1.73376,13.22917 -0.27414,0 -0.49843,0.16014 -0.49843,0.35587 0,1.05996 -0.98653,1.291 -1.66014,0.38879 z"
         id="path306" /><path
         style="fill:#000000;stroke-width:0.264583"
         d="m 119.59499,157.47478 c 0.0115,-0.32742 0.081,-0.44648 0.15435,-0.26458 0.51003,1.264 1.14768,0.27174 1.14768,-1.78594 0,-2.86962 -0.77025,-3.17529 -0.83339,-0.33073 -0.0218,0.98227 -0.0882,1.46915 -0.14759,1.08196 -0.1034,-0.67436 -0.13791,-0.68834 -0.82025,-0.33236 -1.36188,0.71051 -3.22585,0.31924 -3.22585,-0.67715 0,-0.58805 -0.41753,-0.93016 -0.65879,-0.53978 -0.73766,1.19356 -3.85125,-0.51861 -4.17416,-2.2954 -0.49171,-2.70556 -0.81451,-3.91192 -1.24606,-4.65668 -0.44755,-0.77237 -1.02049,-2.80138 -1.47242,-5.21444 -0.26338,-1.40633 -0.81814,-2.11667 -1.65307,-2.11667 -4.60161,0 -5.87819,-8.5317 -1.59697,-10.67291 3.3265,-1.66372 10.53689,1.72496 10.53689,4.95204 0,0.23606 0.11808,0.4292 0.2624,0.4292 0.59171,0 4.22797,4.02095 5.98177,6.61459 2.39217,3.53772 2.98559,4.7779 5.95023,12.43541 1.0394,2.68471 0.91376,2.85395 -1.47878,1.99201 -0.58208,-0.2097 -1.67566,-0.38651 -2.43017,-0.39289 -0.75451,-0.006 -1.64796,-0.1166 -1.98545,-0.24491 -0.58017,-0.22058 -0.61604,-0.17055 -0.65817,0.91812 -0.0555,1.43407 -0.21436,1.69642 -1.02724,1.69642 -0.49956,0 -0.64111,-0.13483 -0.62496,-0.59531 z m -1.12334,-3.22578 c 0.76137,-1.29042 2.16481,-1.5534 3.17048,-0.59409 1.04483,0.99665 4.81114,1.86204 4.81114,1.10546 0,-0.0741 -0.47625,-1.24943 -1.05833,-2.61183 -0.58208,-1.36241 -1.05833,-2.56337 -1.05833,-2.6688 0,-0.59737 -2.15959,-4.57853 -3.76563,-6.94189 -1.66494,-2.45002 -5.49479,-6.76126 -5.49479,-6.18546 0,0.2891 -2.52157,1.48427 -3.93381,1.86455 -1.4577,0.39251 -2.00344,1.38536 -1.63919,2.98208 0.88055,3.85998 1.19141,4.93641 1.73614,6.01176 0.33489,0.66111 0.75481,2.03546 0.93315,3.05411 0.5087,2.90565 2.63913,4.79481 2.63913,2.34024 0,-1.57873 1.80229,-0.0605 2.4828,2.09153 0.22095,0.6987 0.58184,0.56147 1.17724,-0.44766 z"
         id="path304" /></g></g></svg>
